<?xml version="1.0" encoding="UTF-8"?>
<svg version="1.1" xmlns="http://www.w3.org/2000/svg" width="2004" height="771">
<path d="M0 0 C0.66 0 1.32 0 2 0 C38.23165772 68.39451966 50.54281703 135.81376439 46.16674805 212.91235352 C46.05768709 214.93181755 45.98974836 216.95402831 45.96801758 218.97631836 C45.71416959 226.39417854 43.41015401 230.18284749 38.4375 235.5625 C37.1505689 237.03344067 35.86410754 238.50479246 34.578125 239.9765625 C33.95744141 240.67040039 33.33675781 241.36423828 32.69726562 242.07910156 C30.59528728 244.45803792 28.63340876 246.92996717 26.6875 249.4375 C23.40563323 253.5678836 19.93230071 257.49173949 16.37109375 261.3828125 C14.46243096 263.48957374 12.59887511 265.62144587 10.7421875 267.7734375 C6.88929899 272.18455848 2.829863 276.36138532 -1.3125 280.5 C-2.05508057 281.2432251 -2.79766113 281.9864502 -3.56274414 282.75219727 C-8.2355699 287.38024368 -12.95715727 291.69329681 -18.21484375 295.65234375 C-20.11263149 297.02042568 -20.11263149 297.02042568 -22 299 C-21.63615186 305.42798385 -19.48098329 311.49691533 -17.625 317.625 C-12.68819235 334.28829285 -9.85091658 349.54026394 -9.83203125 366.9921875 C-9.82870285 368.09942169 -9.82537445 369.20665588 -9.82194519 370.34744263 C-9.81691623 372.67856435 -9.81453561 375.00969317 -9.81469727 377.34082031 C-9.81252704 380.83150738 -9.79437216 384.32186928 -9.77539062 387.8125 C-9.72703177 406.27821943 -10.03335079 424.80311419 -14.8125 442.75 C-15.07168213 443.78366699 -15.33086426 444.81733398 -15.59790039 445.88232422 C-16.82622058 450.72592901 -18.139885 455.53901541 -19.5390625 460.3359375 C-19.77520264 461.15094727 -20.01134277 461.96595703 -20.25463867 462.80566406 C-20.69281296 464.29392139 -21.14493032 465.77818484 -21.61450195 467.25683594 C-27.73369942 487.65250183 -4.90017698 520.4960426 3.97192383 538.51489258 C6.01055033 542.66285571 8.01657395 546.82538559 10 551 C10.56372314 552.17957275 11.12744629 553.35914551 11.70825195 554.57446289 C12.42694458 556.1637561 12.42694458 556.1637561 13.16015625 557.78515625 C13.576604 558.69402588 13.99305176 559.60289551 14.42211914 560.53930664 C15 563 15 563 14.07299805 565.42797852 C12.57864818 567.59537829 10.94242994 569.22896094 9 571 C8.154375 572.010625 7.30875 573.02125 6.4375 574.0625 C-3.13222341 579.45634411 -21.35532371 573.26938137 -31.87524414 571.50854492 C-34.37042018 571.09288144 -36.86676646 570.68487685 -39.36328125 570.27734375 C-40.48697868 570.08518532 -40.48697868 570.08518532 -41.63337708 569.8891449 C-48.59539796 568.75601968 -54.9306694 568.21629878 -61.671875 570.78515625 C-63.16267578 571.33333008 -63.16267578 571.33333008 -64.68359375 571.89257812 C-65.69550781 572.27865234 -66.70742188 572.66472656 -67.75 573.0625 C-69.78276114 573.83403105 -71.81911114 574.5961901 -73.859375 575.34765625 C-74.75108398 575.68804932 -75.64279297 576.02844238 -76.56152344 576.37915039 C-79.22727794 577.05786622 -80.46766214 577.00809628 -83 576 C-85.578125 573.93359375 -85.578125 573.93359375 -88.25 571.4375 C-89.14203125 570.61121094 -90.0340625 569.78492188 -90.953125 568.93359375 C-91.96632813 567.97646484 -91.96632813 567.97646484 -93 567 C-92.38568715 570.14932539 -91.18609168 572.87231737 -89.82958984 575.76806641 C-69.18158167 620.19462368 -62.82306007 671.84784299 -79.8125 718.4375 C-84.80663148 731.36434356 -92.26733338 742.33335804 -101 753 C-101.48500977 753.5986084 -101.97001953 754.1972168 -102.46972656 754.81396484 C-103.94919699 756.63429835 -105.44030397 758.4442273 -106.9375 760.25 C-107.39809814 760.81146729 -107.85869629 761.37293457 -108.33325195 761.95141602 C-110.52109004 764.54580406 -111.71548128 765.90516043 -115 767 C-114.63945614 757.60783241 -113.15662073 748.54187038 -111.45996094 739.31225586 C-102.99604545 692.99407162 -115.55700701 651.78478416 -135 610 C-135.03996094 610.79664063 -135.07992188 611.59328125 -135.12109375 612.4140625 C-135.95545661 620.88130038 -135.95545661 620.88130038 -138.92578125 624.0625 C-143.69056495 627.26571593 -148.82287006 630.14777349 -154.6875 629.875 C-157 629 -157 629 -160 625 C-160.33 630.61 -160.66 636.22 -161 642 C-163.206875 643.010625 -165.41375 644.02125 -167.6875 645.0625 C-168.37287842 645.38484619 -169.05825684 645.70719238 -169.7644043 646.03930664 C-173.60609868 647.73998427 -176.00363647 648.3857793 -180 647 C-187.70125065 643.3098174 -189.93959499 635.91973185 -192.8125 628.375 C-193.204375 627.26125 -193.59625 626.1475 -194 625 C-195.723398 630.41639371 -196.68223929 635.80780756 -197.53515625 641.42578125 C-198 644 -198 644 -199 646 C-207.25 646 -215.5 646 -224 646 C-225.32 642.7 -226.64 639.4 -228 636 C-228.33 635.67 -228.66 635.34 -229 635 C-230.98 638.63 -232.96 642.26 -235 646 C-239.95 646 -244.9 646 -250 646 C-256.16071429 632.74107143 -256.16071429 632.74107143 -258 628 C-283.41411505 653.41411505 -285.44179719 724.26737459 -287.31738281 757.53759766 C-287.41164551 759.1006665 -287.41164551 759.1006665 -287.5078125 760.6953125 C-287.55566895 761.60297363 -287.60352539 762.51063477 -287.65283203 763.44580078 C-288.02968797 766.21842163 -288.86177147 768.45346454 -290 771 C-293.70981733 769.76339422 -293.90040687 768.88201727 -295.671875 765.50390625 C-296.1680835 764.56200439 -296.66429199 763.62010254 -297.17553711 762.6496582 C-297.95489624 761.12151489 -297.95489624 761.12151489 -298.75 759.5625 C-299.28568604 758.51860107 -299.82137207 757.47470215 -300.37329102 756.39916992 C-315.78155246 725.90641852 -320.21760704 695.08201892 -320.375 661.1875 C-320.38294586 660.29296112 -320.39089172 659.39842224 -320.39907837 658.47677612 C-320.51566122 641.3943515 -319.37129241 624.15334025 -313.8125 607.875 C-313.27399351 606.2276539 -312.73867861 604.57926002 -312.20703125 602.9296875 C-311.9747583 602.24116699 -311.74248535 601.55264648 -311.50317383 600.84326172 C-310.86832778 598.83610007 -310.86832778 598.83610007 -311 596 C-311.72316406 596.84884766 -311.72316406 596.84884766 -312.4609375 597.71484375 C-313.09257812 598.44832031 -313.72421875 599.18179688 -314.375 599.9375 C-315.00148438 600.66839844 -315.62796875 601.39929688 -316.2734375 602.15234375 C-318.40503241 604.43343966 -319.48384496 604.92234142 -322.5703125 605.38671875 C-327.49533923 604.83139113 -330.77435416 602.47894667 -334.875 599.8125 C-335.63941406 599.32974609 -336.40382813 598.84699219 -337.19140625 598.34960938 C-340.20599242 596.44310114 -343.21512395 594.53952447 -346.15478516 592.51879883 C-350.1588605 589.8299964 -352.65150296 588.32435851 -357.625 589.0625 C-358.63949219 589.1965625 -359.65398437 589.330625 -360.69921875 589.46875 C-361.78847656 589.6440625 -362.87773437 589.819375 -364 590 C-366.47900969 590.35526377 -368.9581778 590.70942375 -371.4375 591.0625 C-372.57058594 591.23910156 -373.70367187 591.41570313 -374.87109375 591.59765625 C-379.85397468 592.23840124 -382.8671584 592.55356572 -387.03125 589.515625 C-387.75957031 588.99226562 -388.48789062 588.46890625 -389.23828125 587.9296875 C-389.98464844 587.37539063 -390.73101562 586.82109375 -391.5 586.25 C-392.61955078 585.44175781 -392.61955078 585.44175781 -393.76171875 584.6171875 C-395.20838547 583.56739395 -396.6475443 582.50715779 -398.078125 581.43554688 C-399.68633364 580.23429347 -401.3242871 579.07299903 -402.96875 577.921875 C-405.51165713 575.51589363 -405.62521307 574.4563479 -406 571 C-405.74856518 568.38795381 -405.42317251 565.87392881 -404.99609375 563.29150391 C-404.87759064 562.53148575 -404.75908752 561.77146759 -404.63699341 560.98841858 C-404.37940599 559.34328819 -404.11786754 557.6987726 -403.85281372 556.05482864 C-403.4331202 553.44937274 -403.02455589 550.84238611 -402.61889648 548.23471069 C-401.60918178 541.75802973 -400.58199144 535.28415014 -399.55236816 528.81060791 C-398.68245886 523.33908556 -397.82067076 517.86641252 -396.97024536 512.39182663 C-396.56887236 509.82973925 -396.15558696 507.26975564 -395.74194336 504.70962524 C-395.49531133 503.12894177 -395.24926806 501.54816629 -395.00390625 499.96728516 C-394.88653107 499.26159897 -394.76915588 498.55591278 -394.64822388 497.82884216 C-393.35918411 489.31800627 -395.70346955 482.14997664 -398.375 474.1875 C-398.72151611 473.14795166 -399.06803223 472.10840332 -399.42504883 471.03735352 C-402.556661 461.87230991 -406.27997649 453.0086932 -410.12011719 444.12231445 C-415.89920185 430.70745615 -420.14312778 418.41976536 -420.16796875 403.6796875 C-420.17220352 402.90707581 -420.17643829 402.13446411 -420.18080139 401.33843994 C-420.19063628 398.85057049 -420.19072939 396.36288537 -420.1875 393.875 C-420.18689575 393.02274841 -420.1862915 392.17049683 -420.18566895 391.29241943 C-420.07542685 334.07542685 -420.07542685 334.07542685 -413 327 C-410.79470662 326.81376209 -408.5852053 326.67650006 -406.375 326.5625 C-397.07062832 325.92146933 -391.69946741 324.47547306 -385 318 C-385.96099609 318.433125 -385.96099609 318.433125 -386.94140625 318.875 C-387.80636719 319.24625 -388.67132813 319.6175 -389.5625 320 C-390.40941406 320.37125 -391.25632812 320.7425 -392.12890625 321.125 C-395.68771798 322.20959024 -398.29146816 322.40574747 -402 322 C-404.45378887 320.66853233 -406.38995986 319.4366353 -408.5625 317.75 C-409.16400879 317.30035889 -409.76551758 316.85071777 -410.38525391 316.38745117 C-425.59540898 304.85615093 -440.43572039 291.78471668 -452.9453125 277.36328125 C-455.15161233 274.82561699 -457.44888221 272.38932998 -459.75 269.9375 C-465.81810166 263.26258817 -471.28852301 256.15006036 -476.61865234 248.87695312 C-477.73095083 247.36557972 -478.87097883 245.87463471 -480.01953125 244.390625 C-485.63014776 236.37951687 -486.58314482 226.45043985 -488 217 C-488.15098145 216.04496582 -488.30196289 215.08993164 -488.45751953 214.10595703 C-496.45939982 161.47654593 -492.70632963 103.3900424 -467 56 C-466.60377441 55.25975586 -466.20754883 54.51951172 -465.79931641 53.75683594 C-451.60682796 27.30341398 -451.60682796 27.30341398 -447 25 C-446.97938507 25.71091797 -446.95877014 26.42183594 -446.93753052 27.15429688 C-446.73857056 33.97531527 -446.53321927 40.79611715 -446.32132149 47.616745 C-446.21268692 51.12022161 -446.10621827 54.6237313 -446.00537109 58.12744141 C-445.29961683 82.542406 -443.99445293 106.60570244 -439.6875 130.6875 C-439.53249023 131.56977264 -439.37748047 132.45204529 -439.21777344 133.36105347 C-432.83422993 169.67032452 -424.18782708 199.43018082 -392.5625 222 C-389.95838226 223.80574456 -388.02042411 224.99319196 -385 226 C-383.67960638 224.78117512 -382.35925201 223.56230768 -381.0390625 222.34326172 C-379.8717401 221.26606347 -378.70375316 220.18958499 -377.53515625 219.11376953 C-374.57426846 216.38617819 -371.62284973 213.65034011 -368.69921875 210.8828125 C-324.09574783 168.80150096 -266.09318412 161.60942299 -206.66943359 162.890625 C-156.45930534 164.38724093 -107.28552951 172.32079362 -69.47265625 207.73828125 C-67.0054769 210.05913103 -67.0054769 210.05913103 -64.18359375 212.16796875 C-63.46300781 212.77253906 -62.74242187 213.37710938 -62 214 C-62 214.66 -62 215.32 -62 216 C-63.48461914 216.96704102 -63.48461914 216.96704102 -65.53515625 218.00390625 C-73.65247437 222.08104849 -73.65247437 222.08104849 -78.67578125 229.13232422 C-79.21227367 235.24544496 -77.92757219 241.21728342 -76 247 C-75.62875 245.11667969 -75.62875 245.11667969 -75.25 243.1953125 C-73.38133216 235.16461417 -71.76468276 228.2337241 -64.51464844 223.59570312 C-61.71759102 222.0360839 -58.89346295 220.54326525 -56.03662109 219.09619141 C-32.9296061 206.65906634 -21.09265635 185.11666394 -13.125 161.0625 C-12.91034088 160.41449432 -12.69568176 159.76648865 -12.47451782 159.09884644 C4.628006 107.19731117 11.11510065 53.74097209 0 0 Z M-129.890625 412.1171875 C-130.66402222 412.30198669 -131.43741943 412.48678589 -132.23425293 412.67718506 C-136.07981989 413.59943731 -139.91743641 414.54297503 -143.74609375 415.53320312 C-145.14841337 415.88421101 -146.55075604 416.23512682 -147.953125 416.5859375 C-149.19223633 416.9061084 -150.43134766 417.2262793 -151.70800781 417.55615234 C-156.22561156 418.16524487 -158.55454634 416.9737262 -162.23828125 414.4921875 C-164.15885417 412.99479167 -166.07942708 411.49739583 -168 410 C-169.57413254 418.37332686 -170.49414082 426.61580407 -170.875 435.125 C-170.9471875 436.22714844 -171.019375 437.32929688 -171.09375 438.46484375 C-171.70532388 452.03212743 -165.93957887 461.3784972 -156.97265625 471.2265625 C-141.73411045 485.92594187 -120.46317436 489.15693896 -100.1875 489.25 C-99.07568359 489.270625 -97.96386719 489.29125 -96.81835938 489.3125 C-87.53106701 489.35597474 -78.66659095 488.22390095 -70.6875 483.125 C-69.92824219 482.65320313 -69.16898437 482.18140625 -68.38671875 481.6953125 C-60.64386032 476.19547525 -50.84207755 468.46273325 -48.45703125 458.80029297 C-47.21472285 448.32394225 -49.52455719 437.56546579 -51.328125 427.2734375 C-52.49144037 420.36358784 -52.49903986 413.84239163 -51 407 C-54.87119228 405.70960257 -58.56431689 405.79890644 -62.6015625 405.76171875 C-63.89155655 405.74689201 -63.89155655 405.74689201 -65.20761108 405.73176575 C-87.54780826 405.52847695 -108.11804271 406.89423895 -129.890625 412.1171875 Z M-262 409 C-262.70202545 409.72831024 -263.4040509 410.45662048 -264.12734985 411.20700073 C-268.38147306 415.55641419 -272.05405868 419.15568869 -278.34588623 419.62213135 C-283.50127435 419.62398392 -288.59534348 419.03071496 -293.7109375 418.4453125 C-295.61035496 418.26910976 -297.5102479 418.09796726 -299.41055298 417.93161011 C-304.39185401 417.48282537 -309.36441001 416.96996764 -314.33782959 416.44171143 C-320.35140224 415.81462538 -326.37219705 415.26227558 -332.39208412 414.69973564 C-337.08260783 414.26012374 -341.77116449 413.80982915 -346.4571228 413.32376099 C-362.09571047 410.75272114 -362.09571047 410.75272114 -377 413 C-377.59623136 422.67811261 -378.13859356 432.298451 -378 442 C-374.7 441.34 -371.4 440.68 -368 440 C-368.04125 441.52625 -368.0825 443.0525 -368.125 444.625 C-368.09398184 457.7767013 -366.90665315 471.01461728 -364.125 483.875 C-363.97579102 484.58092285 -363.82658203 485.2868457 -363.67285156 486.01416016 C-361.53336485 495.15620002 -357.60897814 501.24850617 -350.3125 507.1875 C-337.89427122 513.9823799 -322.06998351 511.47281824 -309 508 C-297.10144484 504.42528467 -285.97875594 499.38611154 -274.875 493.875 C-273.42226582 493.16456486 -271.96914129 492.45492737 -270.515625 491.74609375 C-269.11162415 491.0580156 -267.70796504 490.36923959 -266.3046875 489.6796875 C-265.67231171 489.3691745 -265.03993591 489.0586615 -264.38839722 488.73873901 C-262.58393333 487.84240656 -260.79180395 486.92137961 -259 486 C-258.05811325 485.56240356 -258.05811325 485.56240356 -257.09719849 485.1159668 C-252.23358076 482.690572 -250.7262108 480.37892566 -248.9453125 475.328125 C-248.59749222 474.36625275 -248.59749222 474.36625275 -248.24264526 473.38494873 C-247.75929251 472.03413704 -247.28761116 470.67909732 -246.82714844 469.3203125 C-246.12872995 467.26099791 -245.39620339 465.21658663 -244.65625 463.171875 C-243.33608627 459.47531498 -242.14478371 455.75465049 -241 452 C-240.75217773 451.24058105 -240.50435547 450.48116211 -240.24902344 449.69873047 C-238.67708463 443.05340232 -242.9162755 437.20634154 -246 431.625 C-246.56589844 430.5525 -247.13179687 429.48 -247.71484375 428.375 C-251.31143772 421.67114458 -255.05671604 414.82205376 -260 409 C-260.66 409 -261.32 409 -262 409 Z M-197 476 C-198.75982794 477.75982794 -198.46357373 480.31860164 -198.71875 482.71484375 C-198.91017578 484.45604492 -198.91017578 484.45604492 -199.10546875 486.23242188 C-199.23566406 487.45509766 -199.36585938 488.67777344 -199.5 489.9375 C-199.75694077 492.34282176 -200.01718954 494.74779319 -200.28125 497.15234375 C-200.39533203 498.22476318 -200.50941406 499.29718262 -200.62695312 500.40209961 C-201 503 -201 503 -202 505 C-205.63 496.09 -209.26 487.18 -213 478 C-215.89457821 480.89457821 -216.86830472 482.53730774 -218.41796875 486.20703125 C-218.86398437 487.25793945 -219.31 488.30884766 -219.76953125 489.39160156 C-220.23746094 490.52049805 -220.70539063 491.64939453 -221.1875 492.8125 C-221.6721875 493.97362305 -222.156875 495.13474609 -222.65625 496.33105469 C-235.24629358 522.42671684 -235.24629358 522.42671684 -236.9375 550.16015625 C-234.80302666 554.34906017 -231.42038785 556.52653738 -227 558 C-224.02190878 558.0976665 -221.06792258 558.13990489 -218.08984375 558.1328125 C-217.20776749 558.13376923 -216.32569122 558.13472595 -215.41688538 558.13571167 C-213.54655893 558.13639252 -211.67623012 558.13454484 -209.8059082 558.13037109 C-206.97276334 558.12506603 -204.13978026 558.13029608 -201.30664062 558.13671875 C-199.48437465 558.13605708 -197.66210878 558.13477409 -195.83984375 558.1328125 C-194.58614235 558.13584885 -194.58614235 558.13584885 -193.30711365 558.13894653 C-187.48755018 558.1163109 -181.7796958 557.67188503 -176 557 C-172.70745661 546.31295291 -171.64808944 536.38604906 -175.4453125 525.77734375 C-175.71014435 525.01185211 -175.9749762 524.24636047 -176.24783325 523.45767212 C-179.68251245 513.75230758 -183.78640317 504.31803977 -187.875 494.875 C-188.66733082 493.03023303 -189.45900085 491.18518211 -190.25 489.33984375 C-192.15910115 484.88993444 -194.07697598 480.44390922 -196 476 C-196.33 476 -196.66 476 -197 476 Z " fill="#FFFFFF" transform="translate(491,0)"/>
<path d="M0 0 C3.49321102 2.85067739 6.75284603 5.87584429 10 9 C11.97344135 10.70288891 13.98012685 12.35220875 16 14 C19.1735417 12.59266444 21.31952598 10.89954895 23.8125 8.5 C54.30300135 -18.87720867 98.37164799 -30.01580457 138.54296875 -27.86376953 C170.04677403 -25.76073563 201.7027156 -17.66847687 227 2 C227.82322754 2.63808594 227.82322754 2.63808594 228.66308594 3.2890625 C251.66544749 21.32185941 266.31265681 47.39149394 270.09127808 76.3603363 C271.49002647 88.13541327 271.26386725 99.95827497 271.22705078 111.79711914 C271.22648561 114.36117041 271.2268053 116.92522199 271.22793579 119.48927307 C271.22838852 124.97565707 271.22278414 130.46197957 271.21146011 135.94835091 C271.19509897 143.88038494 271.18998634 151.81239606 271.18748413 159.74444514 C271.18312353 172.61846159 271.16985918 185.49245248 271.15087891 198.36645508 C271.13247752 210.86091994 271.11834195 223.35537781 271.10986328 235.84985352 C271.10907511 237.00808234 271.10907511 237.00808234 271.10827102 238.18970973 C271.10566065 242.06396743 271.10313331 245.93822517 271.10064721 249.81248295 C271.07996572 281.8750113 271.04312375 313.93749203 271 346 C241.96 346 212.92 346 183 346 C182.98018066 338.65153809 182.96036133 331.30307617 182.93994141 323.73193359 C182.87504299 300.18134541 182.80050444 276.63079777 182.71994839 253.08025839 C182.70743051 249.41808918 182.69499758 245.75591968 182.68261719 242.09375 C182.6789182 241.00020759 182.6789182 241.00020759 182.67514448 239.88457341 C182.63549242 228.10233269 182.60271178 216.32008247 182.57250018 204.53781419 C182.54131332 192.43528536 182.50267338 180.33279663 182.45720994 168.23031294 C182.43190548 161.43795267 182.40996852 154.6456172 182.39665604 147.85322189 C182.38377296 141.45271824 182.36165165 135.05231132 182.33261681 128.65186119 C182.32358971 126.309869 182.31786225 123.96786125 182.31578636 121.62585258 C182.64843387 92.63613939 182.64843387 92.63613939 168.6875 68 C153.06747131 53.82383951 131.69843644 49.87957728 111.13134766 50.85205078 C93.62845839 52.06702797 75.48839983 56.72167884 63.1328125 70.0078125 C54.00012571 81.59405693 51.85673256 93.983355 51.84178162 108.3770752 C51.83437465 109.90640977 51.83437465 109.90640977 51.82681805 111.46664 C51.81150992 114.86903447 51.8031006 118.27141017 51.79467773 121.67382812 C51.78509395 124.11832849 51.77508358 126.56282721 51.76467896 129.00732422 C51.74326656 134.26301886 51.72481191 139.51871498 51.70907402 144.77442932 C51.68631481 152.37321247 51.65818055 159.97196833 51.62875474 167.57072824 C51.58115278 179.9006557 51.53786868 192.23059437 51.49731445 204.56054688 C51.45792181 216.53451406 51.41648661 228.50847132 51.37231445 240.48242188 C51.36822804 241.59043155 51.36822804 241.59043155 51.36405908 242.72082525 C51.35037898 246.42670997 51.33665883 250.13259454 51.32291877 253.83847904 C51.20907025 284.55896642 51.10303343 315.2794739 51 346 C21.96 346 -7.08 346 -37 346 C-37.0093457 338.40395752 -37.01869141 330.80791504 -37.02832031 322.98168945 C-37.06106538 298.64498983 -37.11337702 274.30836973 -37.17792095 249.9717349 C-37.18793776 246.18810686 -37.197782 242.40447838 -37.20751953 238.62084961 C-37.2094609 237.86763411 -37.21140228 237.11441861 -37.21340248 236.33837839 C-37.24437802 224.16099601 -37.26139069 211.98363246 -37.27319422 199.80621812 C-37.28562887 187.30025461 -37.3131823 174.79438947 -37.35461307 162.28848809 C-37.37968245 154.57887393 -37.39312209 146.86942303 -37.39142957 139.15976753 C-37.39139615 133.23641494 -37.41245264 127.31325164 -37.44116783 121.38996506 C-37.4496562 118.96854123 -37.45142404 116.54708259 -37.44580269 114.12565041 C-37.40919217 95.9250346 -38.25755434 81.98447285 -50.92578125 67.8515625 C-60.3521385 58.58497401 -73.20103617 54.15036355 -86 52 C-86.7528125 51.86980469 -87.505625 51.73960937 -88.28125 51.60546875 C-110.289888 48.52590187 -133.09755242 52.40862887 -151.17578125 65.5859375 C-160.20317704 72.82825503 -165.54176245 83.59879142 -167 95 C-167.14858183 98.41689134 -167.15473104 101.83070019 -167.15821838 105.25045776 C-167.16315636 106.28055596 -167.16809434 107.31065415 -167.17318195 108.37196743 C-167.18853438 111.82203268 -167.1969115 115.27207934 -167.20532227 118.72216797 C-167.21490256 121.1959296 -167.22491273 123.66968959 -167.23532104 126.14344788 C-167.25675855 131.46847874 -167.27520598 136.79350709 -167.29092598 142.11855698 C-167.31365951 149.81763931 -167.34179746 157.51669446 -167.37124526 165.21575369 C-167.41887852 177.70762586 -167.46215423 190.19950916 -167.50268555 202.69140625 C-167.5420622 214.82455308 -167.58349361 226.95769003 -167.62768555 239.09082031 C-167.63040982 239.83897986 -167.63313409 240.58713941 -167.63594092 241.35797046 C-167.64962075 245.11134866 -167.66334096 248.86472672 -167.67708123 252.6181047 C-167.79097898 283.74538372 -167.8969996 314.87268254 -168 346 C-197.04 346 -226.08 346 -256 346 C-256 225.88 -256 105.76 -256 -18 C-226.96 -18 -197.92 -18 -168 -18 C-167.67 -8.1 -167.34 1.8 -167 12 C-164.97875 9.89625 -162.9575 7.7925 -160.875 5.625 C-116.26255772 -39.46939915 -49.36743059 -35.25853672 0 0 Z " fill="#FFFFFF" transform="translate(858,326)"/>
<path d="M0 0 C28.71 0 57.42 0 87 0 C87 165 87 330 87 500 C58.29 500 29.58 500 0 500 C-2.0568946 497.9431054 -1.25747076 493.64444002 -1.31640625 490.80859375 C-1.33718735 489.98875504 -1.35796844 489.16891632 -1.37937927 488.32423401 C-1.44496494 485.69541099 -1.50380126 483.06648496 -1.5625 480.4375 C-1.60567667 478.65949439 -1.64929067 476.88149935 -1.69335938 475.10351562 C-1.80065543 470.73578366 -1.90189704 466.36794773 -2 462 C-2.49483887 462.51369141 -2.98967773 463.02738281 -3.49951172 463.55664062 C-7.79852911 467.94860422 -12.13259688 471.91872871 -17.125 475.5 C-17.77114258 475.96647949 -18.41728516 476.43295898 -19.08300781 476.91357422 C-25.45869831 481.44121596 -32.05380265 485.39898195 -39 489 C-39.69544922 489.36335449 -40.39089844 489.72670898 -41.10742188 490.10107422 C-63.95742365 501.88279237 -89.19971591 509.21610762 -115 510 C-116.00675781 510.03996094 -117.01351563 510.07992188 -118.05078125 510.12109375 C-143.620504 510.64167493 -169.95312558 506.80199817 -194 498 C-194.76586426 497.72317383 -195.53172852 497.44634766 -196.32080078 497.16113281 C-213.70220809 490.78990168 -229.57317469 482.66997507 -244 471 C-244.8971875 470.30519531 -245.794375 469.61039063 -246.71875 468.89453125 C-285.3251803 438.44204528 -306.34899619 392.38854456 -312.0546875 344.21435547 C-317.43730013 291.45863512 -307.07670592 236.0794347 -273.9375 193.6875 C-269.78223205 188.64777742 -265.44944211 183.78102965 -261 179 C-260.34902344 178.28328125 -259.69804688 177.5665625 -259.02734375 176.828125 C-225.29996863 141.21617594 -174.62397693 126.64311224 -126.9765625 124.77734375 C-83.07922263 123.65422657 -38.21327499 139.21948014 -5.890625 169.1875 C-4.57990954 170.44405366 -3.28392019 171.71607981 -2 173 C-1.99576806 172.11447984 -1.99153612 171.22895967 -1.98717594 170.31660557 C-1.88401759 148.80229516 -1.7754024 127.28801839 -1.66066074 105.77376652 C-1.60530587 95.36977848 -1.55182022 84.96578701 -1.50268555 74.56176758 C-1.45987138 65.49707571 -1.41360049 56.43240933 -1.36312145 47.36775678 C-1.33649814 42.56498888 -1.3116446 37.7622261 -1.29092598 32.95942879 C-1.27139386 28.44430722 -1.24726056 23.92923426 -1.21950912 19.41415596 C-1.21012048 17.75203836 -1.20245177 16.08991008 -1.19658089 14.42777634 C-1.18835036 12.16847691 -1.17408265 9.90929643 -1.15821838 7.65003967 C-1.14853956 5.74884164 -1.14853956 5.74884164 -1.1386652 3.80923557 C-1 1 -1 1 0 0 Z M-169 216 C-169.9796875 216.50015625 -170.959375 217.0003125 -171.96875 217.515625 C-195.26824411 230.14640339 -211.76570534 252.32593573 -219.41015625 277.51171875 C-228.89008777 310.54558177 -227.22193322 347.26370548 -211 378 C-208.58011754 382.21295885 -205.92578025 386.12308271 -203 390 C-202.60329102 390.5269043 -202.20658203 391.05380859 -201.79785156 391.59667969 C-184.30883721 414.45857975 -159.13103556 426.5794087 -131 431 C-100.41211104 434.94806086 -69.36439174 429.49980377 -43.79296875 411.77734375 C-41.06604096 409.62779123 -38.52960657 407.37783018 -36 405 C-35.01773438 404.11957031 -34.03546875 403.23914063 -33.0234375 402.33203125 C-13.08952433 383.93975828 -2.30616588 356.1208324 -0.79321289 329.33959961 C-0.69703523 325.49474149 -0.67080207 321.6585113 -0.6875 317.8125 C-0.68965515 317.13402008 -0.6918103 316.45554016 -0.69403076 315.75650024 C-0.83688889 287.64854386 -8.07655721 260.49433368 -27 239 C-27.763125 237.989375 -28.52625 236.97875 -29.3125 235.9375 C-45.54991851 218.18962395 -69.32692497 207.11297317 -93 204 C-93.84304688 203.88914062 -94.68609375 203.77828125 -95.5546875 203.6640625 C-120.49558851 200.92574399 -146.68118393 204.13578725 -169 216 Z " fill="#FFFFFF" transform="translate(1917,173)"/>
<path d="M0 0 C14.09482097 12.91478945 25.60500187 26.16921377 35.1875 42.8125 C35.84492187 43.93914062 36.50234375 45.06578125 37.1796875 46.2265625 C63.98269905 93.42515361 66.93741838 154.29532889 52.9140625 205.94921875 C47.16247561 226.04660341 38.47163618 244.86264604 26.1875 261.8125 C25.80964355 262.3384375 25.43178711 262.864375 25.04248047 263.40625 C-4.58972901 304.21520434 -49.83458965 327.27931775 -98.953125 335.15576172 C-153.82792497 343.31735673 -212.30911587 334.18617457 -258.8125 302.8125 C-262.63178626 299.97264411 -266.24358822 296.95928243 -269.8125 293.8125 C-270.64136719 293.09320312 -271.47023438 292.37390625 -272.32421875 291.6328125 C-274.85814042 289.39723325 -277.34231854 287.11825762 -279.8125 284.8125 C-281.12347656 283.60013672 -281.12347656 283.60013672 -282.4609375 282.36328125 C-314.42066774 251.73139081 -332.83767616 204.57919196 -333.97363281 160.57568359 C-333.99309926 159.12083113 -334.00689684 157.66589402 -334.015625 156.2109375 C-334.02268463 155.42023361 -334.02974426 154.62952972 -334.03701782 153.81486511 C-334.35737882 107.34288861 -325.87140235 62.395975 -296.8125 24.8125 C-296.13058594 23.90757812 -295.44867187 23.00265625 -294.74609375 22.0703125 C-262.93080131 -18.6194543 -215.50211813 -39.65482564 -165.1171875 -45.9375 C-106.61384399 -52.41870664 -44.87686928 -39.56809136 0 0 Z M-220 66.1875 C-242.4062759 92.20041991 -247.16437883 125.72296408 -245.8125 158.8125 C-243.54930139 188.32521746 -230.85708435 215.21837592 -209.125 235.375 C-186.03799155 254.72063554 -155.43160983 261.94299454 -125.76171875 259.5 C-98.14351744 256.88198206 -72.33462629 246.00574887 -53.8125 224.8125 C-35.28310712 202.06503395 -27.36464736 174.66527929 -27.5 145.5625 C-27.50491455 144.29760742 -27.5098291 143.03271484 -27.51489258 141.72949219 C-27.63831407 131.81779665 -28.46464393 122.43963424 -30.8125 112.8125 C-30.97878906 112.10770508 -31.14507813 111.40291016 -31.31640625 110.67675781 C-37.67087653 84.54105688 -52.93006028 61.17209387 -76.03515625 46.87548828 C-122.15291206 19.29352279 -183.31368221 26.68997012 -220 66.1875 Z " fill="#FFFFFF" transform="translate(1506.8125,345.1875)"/>
</svg>
